<mxfile host="app.diagrams.net" modified="2023-08-31T13:23:16.142Z" agent="Mozilla/5.0 (X11; Linux x86_64) AppleWebKit/537.36 (KHTML, like Gecko) Chrome/114.0.0.0 Safari/537.36" version="21.7.1" etag="fkkc4nIE2CjVyx2zbhTt" type="github">
  <diagram name="Page-1" id="3DXd7k1YuJs5gOGcgA8N">
    <mxGraphModel>
      <root>
        <mxCell id="0" />
        <mxCell id="1" parent="0" />
      </root>
    </mxGraphModel>
  </diagram>
</mxfile>
